<mxfile host="app.diagrams.net" modified="2024-05-28T07:36:30.382Z" agent="Mozilla/5.0 (X11; Linux x86_64; rv:126.0) Gecko/20100101 Firefox/126.0" version="24.4.9" etag="xehoPEZMdnACrXw8hSaR" type="github">
  <diagram name="Page-1" id="5uFUbDLTDONE6XB2f1me">
    <mxGraphModel>
      <root>
        <mxCell id="0" />
        <mxCell id="1" parent="0" />
      </root>
    </mxGraphModel>
  </diagram>
</mxfile>
